<svg version="1.2" xmlns="http://www.w3.org/2000/svg" viewBox="0 0 200 200" width="100" height="100">
	<style>
		.s0 { fill: none;stroke: #ffffff;stroke-miterlimit:100;stroke-width: 20;stroke-dasharray: 100,300 } 
		.s1 { fill: #ffffff } 
	</style>
	<g id="Restart">
		<path id="Dashed circle copy" fill-rule="evenodd" class="s0" d="m108.14 174.56c-41.23 4.5-78.2-25.19-82.7-66.42-4.5-41.23 25.19-78.2 66.42-82.7 41.23-4.5 78.2 25.19 82.7 66.42 4.5 41.23-25.19 78.2-66.42 82.7z"/>
		<path id="Bottom Triangle" fill-rule="evenodd" class="s1" d="m174.32 111.4l-0.16 54.72-47.32-27.5z"/>
		<path id="Dashed circle copy 2" fill-rule="evenodd" class="s0" d="m91.86 25.44c41.23-4.5 78.2 25.19 82.7 66.42 4.5 41.23-25.19 78.2-66.42 82.7-41.23 4.5-78.2-25.19-82.7-66.42-4.5-41.23 25.19-78.2 66.42-82.7z"/>
		<path id="Bottom Triangle copy 2" fill-rule="evenodd" class="s1" d="m25.68 88.6l0.16-54.72 47.32 27.5z"/>
	</g>
</svg>